<?xml version="1.0" encoding="UTF-8" standalone="no"?>
<!DOCTYPE svg PUBLIC "-//W3C//DTD SVG 1.1//EN"
 "http://www.w3.org/Graphics/SVG/1.1/DTD/svg11.dtd">
<!-- Generated by graphviz version 2.36.0 (20140111.2315)
 -->
<!-- Title: G Pages: 1 -->
<svg width="156pt" height="186pt"
 viewBox="0.00 0.00 156.00 186.00" xmlns="http://www.w3.org/2000/svg" xmlns:xlink="http://www.w3.org/1999/xlink">
<g id="graph0" class="graph" transform="scale(1 1) rotate(0) translate(4 182)">
<title>G</title>
<polygon fill="white" stroke="none" points="-4,4 -4,-182 152,-182 152,4 -4,4"/>
<g id="clust1" class="cluster"><title>cluster_Global</title>
<path fill="none" stroke="gray" d="M12,-8C12,-8 136,-8 136,-8 142,-8 148,-14 148,-20 148,-20 148,-158 148,-158 148,-164 142,-170 136,-170 136,-170 12,-170 12,-170 6,-170 0,-164 0,-158 0,-158 0,-20 0,-20 0,-14 6,-8 12,-8"/>
<text text-anchor="middle" x="74" y="-157.2" font-family="Times,serif" font-size="11.00" fill="gray">Global</text>
</g>
<g id="clust2" class="cluster"><title>cluster_\EmergencyGateway</title>
<path fill="none" stroke="gray" d="M20,-16C20,-16 128,-16 128,-16 134,-16 140,-22 140,-28 140,-28 140,-130 140,-130 140,-136 134,-142 128,-142 128,-142 20,-142 20,-142 14,-142 8,-136 8,-130 8,-130 8,-28 8,-28 8,-22 14,-16 20,-16"/>
<text text-anchor="middle" x="74" y="-129.2" font-family="Times,serif" font-size="11.00" fill="gray">EmergencyGateway</text>
</g>
<!-- \\EmergencyGateway\\Address -->
<g id="node1" class="node"><title>\\EmergencyGateway\\Address</title>
<polygon fill="none" stroke="black" points="106,-114 42,-114 42,-78 106,-78 106,-114"/>
<text text-anchor="middle" x="74" y="-93.2" font-family="Courier,monospace" font-size="11.00">Address</text>
</g>
<!-- \\EmergencyGateway\\EGW -->
<g id="node2" class="node"><title>\\EmergencyGateway\\EGW</title>
<polygon fill="none" stroke="black" points="101,-60 47,-60 47,-24 101,-24 101,-60"/>
<text text-anchor="middle" x="74" y="-39.2" font-family="Courier,monospace" font-size="11.00">EGW</text>
</g>
</g>
</svg>
